<svg 
 xmlns="http://www.w3.org/2000/svg"
 xmlns:xlink="http://www.w3.org/1999/xlink"
 width="0.278in" height="0.222in">
<path fill-rule="evenodd"  fill="rgb(255, 255, 255)"
 d="M19.995,1.884 C19.259,2.206 18.469,2.422 17.640,2.520 C18.487,2.021 19.137,1.229 19.443,0.286 C18.650,0.748 17.773,1.084 16.839,1.266 C16.091,0.482 15.025,-0.009 13.846,-0.009 C11.582,-0.009 9.746,1.799 9.746,4.028 C9.746,4.345 9.782,4.653 9.852,4.948 C6.444,4.780 3.422,3.173 1.400,0.730 C1.047,1.326 0.845,2.020 0.845,2.760 C0.845,4.160 1.569,5.396 2.669,6.120 C1.997,6.099 1.365,5.918 0.812,5.615 C0.811,5.632 0.811,5.649 0.811,5.667 C0.811,7.623 2.225,9.254 4.101,9.625 C3.757,9.717 3.395,9.767 3.021,9.767 C2.756,9.767 2.500,9.741 2.249,9.694 C2.771,11.298 4.285,12.465 6.079,12.498 C4.676,13.581 2.908,14.227 0.987,14.227 C0.656,14.227 0.330,14.208 0.009,14.169 C1.823,15.315 3.978,15.984 6.295,15.984 C13.837,15.984 17.961,9.832 17.961,4.496 C17.961,4.322 17.957,4.147 17.949,3.974 C18.750,3.405 19.445,2.694 19.995,1.884 Z"/>
</svg>